ply
format ascii 1.0
comment VCGLIB generated
element vertex 70
property float x
property float y
property float z
property float nx
property float ny
property float nz
element face 0
property list uchar int vertex_indices
end_header
0.356061 -0.116899 -0.196992 -0.037068 -0.002753 0.01562 
0.427071 -0.977462 -0.578489 -0.007572 0.058615 0.012733 
-0.292693 0.543616 0.307907 0.127475 -0.151903 -0.040394 
-0.397085 -0.127354 -0.459408 0.001653 -0.00045 0.000527 
-0.387899 -0.225222 0.368045 -0.02728 -0.591808 0.127947 
-0.359245 -0.101855 -0.366458 0.030503 -0.024662 0.03664 
0.122651 -0.084065 0.153052 -0.1675 0.013066 -0.053243 
0.206829 -0.136134 -0.446695 -0.571104 0.001235 0.003528 
0.12286 0.044122 0.273528 -0.096984 -0.028567 0.004085 
0.010645 -0.068738 0.225514 -0.0002 -0.005279 -0.016756 
0.33679 -0.130115 -0.051341 -0.028212 0.007864 -0.103687 
-0.298659 0.419399 0.30873 0.028737 -0.221706 0.00545 
-0.058105 -0.081305 0.186241 -0.005169 0.001456 -0.028779 
-0.025817 0.409459 0.266637 -0.118546 -0.206136 -0.004321 
0.111159 0.170158 0.269193 0.127252 -0.281653 0.002365 
-0.142431 0.468024 0.273304 0.412886 -0.000118 0.022442 
0.114573 0.366735 0.320122 -0.124295 -0.305883 0.020126 
0.467898 -0.959938 0.508426 -0.017612 0.069214 -0.012631 
-0.195916 -0.073951 0.008544 0.206198 0.019287 -0.001154 
0.402622 -0.466028 0.419606 0.02316 -0.310898 0.051467 
-0.194591 0.28647 0.261853 -0.032421 -0.42835 0.014726 
-0.035391 0.020419 0.279525 0.008948 -0.01129 0.001184 
0.174902 -0.136918 -0.160802 -0.16091 -0.006117 0.104076 
-0.39789 -0.34942 -0.495671 -0.036018 -0.531987 -0.062427 
0.308604 0.536395 0.322873 0.007011 0.004112 0.000232 
0.017789 -0.126215 -0.277828 -0.170496 -0.024558 0.233126 
0.045024 -0.130485 -0.422402 -0.398099 -0.000999 -0.004717 
-0.14606 -0.119577 -0.349737 -0.125965 -0.01468 0.067979 
0.394765 -0.515417 -0.517706 0.023951 -0.412636 -0.04717 
0.332164 0.624977 0.334507 -0.009402 -0.034876 -0.004872 
-0.32616 0.164711 0.321328 -0.028477 -0.475244 0.044773 
0.317993 0.162287 0.314784 -0.019002 -0.078218 0.01558 
0.411254 -0.716076 -0.538561 0.005543 -0.187338 -0.022913 
0.377601 -0.34359 -0.502485 0.042116 -0.592652 -0.064313 
-0.342307 -0.033378 0.322669 0.048717 -0.05464 0.009494 
-0.202671 -0.128692 -0.205368 0.057436 -0.00074 -0.068802 
-0.412605 -0.637204 -0.530355 -0.021367 -0.244301 -0.027857 
-0.175474 -0.087374 0.17314 0.148195 0.014775 -0.037042 
0.002194 0.61545 0.333721 0.31593 -0.034505 -0.008047 
-0.103739 -0.125755 -0.43489 -0.259495 -0.008007 -0.005101 
0.34287 -0.108203 -0.336786 -0.010176 -0.009871 0.137674 
-0.053885 0.212878 0.269839 -0.011392 -0.33587 0.015964 
0.343342 -0.114548 0.319531 -0.042674 -0.00581 -0.022707 
0.206708 -0.121315 -0.316376 -0.207406 -0.017252 0.22566 
-0.252196 -0.13115 -0.44867 -0.11831 -0.003996 -0.000119 
0.168079 -0.071808 0.015832 -0.142646 0.001601 0.133025 
-0.124053 0.617614 0.334519 0.444707 -0.034149 -0.006134 
-0.24132 0.605656 0.323335 0.011455 -0.01023 -0.002369 
-0.03132 -0.139905 -0.16248 0.12271 -0.001744 0.116633 
-0.346605 -0.109823 -0.251491 -0.004115 -0.014789 -0.14329 
-0.418363 -0.466766 0.41669 0.003067 -0.363671 0.081405 
-0.344541 -0.131904 -0.456447 -0.043501 0.001869 -0.000228 
0.27618 0.333074 0.308454 -0.060342 -0.217189 0.016078 
0.325097 -0.139789 0.144848 -0.08593 0.007831 -0.237615 
0.14757 0.479159 0.324221 0.164873 0.041744 -0.001368 
-0.034545 -0.04724 0.038495 0.049529 0.003271 0.053492 
-0.436207 -0.885735 -0.561002 0.000682 0.001334 0.000881 
0.423455 -0.672246 0.463152 0.004847 -0.102291 0.006733 
0.335112 0.01785 0.316706 -0.042359 -0.005273 0.0027 
0.388554 -0.299651 0.386575 0.025273 -0.354328 0.067023 
-0.388984 -0.193242 -0.474495 -0.002063 0.063771 0.016073 
-0.302071 -0.14561 0.142774 -0.018673 0.006441 -0.416786 
-0.448967 -0.667196 0.482489 0.03164 -0.168823 0.017931 
-0.335145 -0.115353 -0.091608 0.04467 -0.034944 0.052319 
0.44193 -0.834449 0.494553 -0.00345 -0.019767 -0.008373 
0.167947 0.609277 0.332487 0.15143 -0.027363 -0.005961 
-0.184793 -0.024801 0.266057 0.195183 0.018743 0.004335 
0.181679 -0.037854 0.261816 -0.196762 -0.005227 -0.00517 
0.36735 -0.155573 -0.454831 -0.447656 0.030146 0.115981 
-0.425339 -0.850331 0.508885 0.00488 0.008721 -0.005184 
